<?xml version="1.0" encoding="UTF-8"?>
<svg xmlns="http://www.w3.org/2000/svg" xmlns:xlink="http://www.w3.org/1999/xlink" viewBox="0 0 60 60" width="60px" height="60px">
<g id="surface11396692">
<path style=" stroke:none;fill-rule:nonzero;fill:rgb(100%,100%,100%);fill-opacity:1;" d="M 6 24 L 6 20 C 6 19.226562 6.445312 18.523438 7.144531 18.191406 C 7.84375 17.859375 8.667969 17.960938 9.269531 18.453125 L 30 35.414062 L 50.734375 18.453125 C 51.332031 17.960938 52.15625 17.863281 52.859375 18.191406 C 53.558594 18.523438 54 19.226562 54 20 L 54 24 C 54 24.601562 53.730469 25.167969 53.265625 25.546875 L 31.265625 43.546875 C 30.527344 44.148438 29.46875 44.148438 28.730469 43.546875 L 6.730469 25.546875 C 6.269531 25.167969 6 24.601562 6 24 Z M 6 24 "/>
</g>
</svg>
